# xmcd
#
# Track frame offsets:
#	150
#	37216
#	66169
#	95295
#	131629
#	169079
#	198195
#	232660
#	264584
#	294305
#
# Disc length: 4360
#
# Revision: 1
# Processed by: cddbd v1.5.1PL0 Copyright (c) Steve Scherf et al.
# Submitted via: Audion 3.0.2 (http://www.panic.com/audion/)
# Normalized: r0:TDELIM( - )
#
DISCID=8711060a
DTITLE=Tobi - House - Dance 079
DYEAR=1900
DGENRE=
TTITLE0=Armand van Helden - U Dont Know me
TTITLE1=DJ Falcon and Thomas Bangalter - Call On Me
TTITLE2=Elektrochemie LK - Lay Here
TTITLE3=JCA - I'll See Her Again
TTITLE4=Julian Poker - Someday
TTITLE5=Paul Johnson - Follow The Beat
TTITLE6=Rozzo - Blue
TTITLE7=Simply Red - Fake (Phunk Investigation Club Mix)
TTITLE8=The Latin Project - Lei Lo Lei (Jez Colin Remix)
TTITLE9=Wesley Clarke - It'll Be OK (Original Club Mix)
EXTD=
EXTT0=
EXTT1=
EXTT2=
EXTT3=
EXTT4=
EXTT5=
EXTT6=
EXTT7=
EXTT8=
EXTT9=
PLAYORDER=
